<svg xmlns="http://www.w3.org/2000/svg" viewBox="0 0 44.94 46.97"><title>knifeBack</title><g id="Layer_2" data-name="Layer 2"><g id="Layer_1-2" data-name="Layer 1"><path d="M15.48,16.27l-1.56.47-2.47.74V11.05h-5V9.36A4.8,4.8,0,1,0,3.2,4.8q0,.18,0,.36h0v5.89H0V47H3.88a1.53,1.53,0,1,0,0-3.05h-1V32.36H8.55V47h3.88a1.53,1.53,0,1,0,0-3.05h-1V19.46l3-.9.36,1.21,6.11-5.12h0Z"/><path d="M44.94,14.63l-5.45,1.64-1.56.47-2.47.74V11.05h-5V9.36a4.8,4.8,0,1,0-3.3-4.56q0,.18,0,.36h0v5.89H24V47h3.88a1.53,1.53,0,0,0,0-3.05h-1V32.36h5.65V47h3.88a1.53,1.53,0,0,0,0-3.05h-1V19.46l3-.9.36,1.21,6.11-5.12Z"/></g></g></svg>