<svg xmlns="http://www.w3.org/2000/svg" viewBox="0 0 44.94 46.97"><title>knifeFront</title><g id="Layer_2" data-name="Layer 2"><g id="Layer_1-2" data-name="Layer 1"><path d="M15.48,16.27l-1.56.47-2.47.74V11.05h-5V9.36A4.8,4.8,0,1,0,3.2,4.8q0,.18,0,.36h0v5.89H0V47H3.88a1.53,1.53,0,1,0,0-3.05h-1V32.36H8.55V47h3.88a1.53,1.53,0,1,0,0-3.05h-1V19.46l3-.9.36,1.21,6.11-5.12h0Z"/><path d="M41.74,11.05V5.16h0q0-.18,0-.36a4.8,4.8,0,1,0-3.3,4.56v1.69h-5v6.42L31,16.73l-1.56-.47L24,14.63h0l6.11,5.12.36-1.21,3,.9V43.91h-1a1.53,1.53,0,0,0,0,3.05h3.88V32.36H42V43.91h-1a1.53,1.53,0,0,0,0,3.05h3.88V11.05Z"/></g></g></svg>