<svg xmlns="http://www.w3.org/2000/svg" viewBox="0 0 14.85 14.85"><defs><style>.cls-1{stroke:#000;stroke-miterlimit:10;}</style></defs><title>creditsIcon</title><g id="Layer_2" data-name="Layer 2"><g id="Layer_1-2" data-name="Layer 1"><path class="cls-1" d="M13.57,7.42a6.12,6.12,0,0,0-1.08-3.48l1.65-1.65L12.56.71,10.91,2.36a6.14,6.14,0,0,0-7,0L2.29.71.71,2.29,2.36,3.94a6.14,6.14,0,0,0,0,7L.71,12.56l1.58,1.58,1.65-1.65a6.14,6.14,0,0,0,7,0l1.65,1.65,1.58-1.58-1.65-1.65A6.12,6.12,0,0,0,13.57,7.42ZM7.42,11.34a3.91,3.91,0,1,1,3.91-3.91A3.91,3.91,0,0,1,7.42,11.34Z"/></g></g></svg>