<svg xmlns="http://www.w3.org/2000/svg" viewBox="0 0 40.58 37.46"><title>guidesIcon</title><g id="Layer_2" data-name="Layer 2"><g id="Layer_1-2" data-name="Layer 1"><path d="M22.37,9c4.35,6.55,4.69,11.3,4.69,11.3s4.38-3.52-4-19.94L23,.1h0a.12.12,0,0,0,0-.06l0,0a.12.12,0,0,0-.16,0l-.26.4a.12.12,0,0,0,0,.06c-9.82,15.16-5.9,19.08-5.9,19.08S17.41,15,22.37,9Z"/><path d="M40.56,37.27l-.22-.43,0,0C32.2,20.65,26.84,22,26.84,22s3.57,3.07,6.22,10.38c-7.85.43-12.12-1.68-12.12-1.68s.81,5.56,19.2,6.69l.26,0h.08l0,0A.12.12,0,0,0,40.56,37.27Z"/><path d="M8.27,30c3.9-6.72,8-9.11,8-9.11S11.2,18.52.37,33L.31,33,0,33.4a.12.12,0,0,0,0,.16l0,0,.07,0h0l.26,0c18.29,2.15,20.08-3.18,20.08-3.18S15.92,31.77,8.27,30Z"/></g></g></svg>