<svg xmlns="http://www.w3.org/2000/svg" viewBox="0 0 38 38"><defs><style>.cls-1{fill:#0f1925;}.cls-2{fill:#ed4857;}</style></defs><title>valorantGuidesLogo</title><g id="Layer_2" data-name="Layer 2"><g id="Layer_1-2" data-name="Layer 1"><rect class="cls-1" width="38" height="38"/><polygon class="cls-2" points="32.26 18.23 32.26 13.11 24.73 13.11 22.14 15.7 22.14 15.74 29.65 15.74 29.65 17.09 25.91 20.84 21.84 20.84 18.02 17.01 18.02 11.77 21.8 7.99 26.27 7.99 28.95 5.31 28.95 5.31 20.71 5.31 15.39 10.63 15.39 18.12 20.79 23.52 26.97 23.52 32.26 18.23"/><polygon class="cls-2" points="15.27 26.01 11.68 22.43 8.03 18.78 8.01 18.8 4.42 15.21 4.4 15.23 4.4 18.98 7.85 22.43 7.86 22.43 16.78 31.35 16.8 31.34 18.69 33.23 22.47 33.23 22.48 33.22 15.27 26.01"/></g></g></svg>