<svg xmlns="http://www.w3.org/2000/svg" viewBox="0 0 23.9 37.66"><title>weaponsIcon</title><g id="Layer_2" data-name="Layer 2"><g id="Layer_1-2" data-name="Layer 1"><path d="M17.14,19.14l.9-1,3.87-7L23.76,5,23.9.18,23.63,0,19.38,2.35,14.79,6.8l-4.45,6.66-.51,1.27L10.5,17l-.26,1.14A4.07,4.07,0,0,0,6.37,23.7l0,.37-.74,1.34-.92.27L.11,35.14,0,36l1.63.9h0l1.07.72.75-.52,6.28-8.46-.19-.94.85-1.27.7-.27a4.08,4.08,0,0,0,1.07-.41l.16-.06.05-.06a4.07,4.07,0,0,0,1.49-5.13l0-.12.94-.8Zm-5,4.65a2.55,2.55,0,1,1-.7-3.53A2.55,2.55,0,0,1,12.19,23.79Z"/></g></g></svg>